<mxfile host="app.diagrams.net" agent="Mozilla/5.0 (Windows NT 10.0; Win64; x64) AppleWebKit/537.36 (KHTML, like Gecko) Chrome/133.0.0.0 Safari/537.36" version="26.0.14">
  <diagram name="Page-1" id="5d7acffa-a066-3a61-03fe-96351882024d">
    <mxGraphModel grid="1" page="1" gridSize="10" guides="1" tooltips="1" connect="1" arrows="1" fold="1" pageScale="1" pageWidth="1100" pageHeight="850" background="#ffffff" math="0" shadow="0">
      <root>
        <mxCell id="0" />
        <mxCell id="1" parent="0" />
        <mxCell id="llIrjqi0Os5ixN-cO-Vk-1" value="Twitter/X Bird Reborn update" style="rounded=1;whiteSpace=wrap;html=1;" vertex="1" parent="1">
          <mxGeometry x="520" y="350" width="120" height="180" as="geometry" />
        </mxCell>
        <mxCell id="llIrjqi0Os5ixN-cO-Vk-2" value="All Users" style="rounded=0;whiteSpace=wrap;html=1;" vertex="1" parent="1">
          <mxGeometry x="30" y="280" width="120" height="290" as="geometry" />
        </mxCell>
        <mxCell id="llIrjqi0Os5ixN-cO-Vk-3" value="Premium Users" style="rounded=0;whiteSpace=wrap;html=1;" vertex="1" parent="1">
          <mxGeometry x="920" y="335" width="120" height="180" as="geometry" />
        </mxCell>
        <mxCell id="llIrjqi0Os5ixN-cO-Vk-4" value="Twitter/X Moderation" style="rounded=0;whiteSpace=wrap;html=1;" vertex="1" parent="1">
          <mxGeometry x="480" y="70" width="160" height="90" as="geometry" />
        </mxCell>
        <mxCell id="llIrjqi0Os5ixN-cO-Vk-5" value="" style="endArrow=classic;html=1;rounded=0;entryX=0.158;entryY=-0.017;entryDx=0;entryDy=0;entryPerimeter=0;exitX=0.363;exitY=1.033;exitDx=0;exitDy=0;exitPerimeter=0;" edge="1" parent="1" source="llIrjqi0Os5ixN-cO-Vk-4" target="llIrjqi0Os5ixN-cO-Vk-1">
          <mxGeometry width="50" height="50" relative="1" as="geometry">
            <mxPoint x="330" y="240" as="sourcePoint" />
            <mxPoint x="380" y="190" as="targetPoint" />
          </mxGeometry>
        </mxCell>
        <mxCell id="llIrjqi0Os5ixN-cO-Vk-6" value="Modify content &lt;br&gt;filter request" style="edgeLabel;html=1;align=center;verticalAlign=middle;resizable=0;points=[];" connectable="0" vertex="1" parent="llIrjqi0Os5ixN-cO-Vk-5">
          <mxGeometry x="-0.6269" relative="1" as="geometry">
            <mxPoint x="-8" y="4" as="offset" />
          </mxGeometry>
        </mxCell>
        <mxCell id="llIrjqi0Os5ixN-cO-Vk-7" value="" style="endArrow=classic;html=1;rounded=0;entryX=1;entryY=0.25;entryDx=0;entryDy=0;exitX=0.025;exitY=0.1;exitDx=0;exitDy=0;exitPerimeter=0;" edge="1" parent="1" source="llIrjqi0Os5ixN-cO-Vk-3" target="llIrjqi0Os5ixN-cO-Vk-1">
          <mxGeometry width="50" height="50" relative="1" as="geometry">
            <mxPoint x="846" y="300" as="sourcePoint" />
            <mxPoint x="660" y="300" as="targetPoint" />
          </mxGeometry>
        </mxCell>
        <mxCell id="llIrjqi0Os5ixN-cO-Vk-8" value="Update profile&amp;nbsp;&lt;div&gt;theme request&lt;/div&gt;" style="edgeLabel;html=1;align=center;verticalAlign=middle;resizable=0;points=[];" connectable="0" vertex="1" parent="llIrjqi0Os5ixN-cO-Vk-7">
          <mxGeometry x="0.3389" y="4" relative="1" as="geometry">
            <mxPoint x="99" y="-33" as="offset" />
          </mxGeometry>
        </mxCell>
        <mxCell id="llIrjqi0Os5ixN-cO-Vk-9" value="" style="endArrow=classic;html=1;rounded=0;exitX=1.008;exitY=0.039;exitDx=0;exitDy=0;exitPerimeter=0;entryX=0.017;entryY=0.133;entryDx=0;entryDy=0;entryPerimeter=0;" edge="1" parent="1" source="llIrjqi0Os5ixN-cO-Vk-2" target="llIrjqi0Os5ixN-cO-Vk-1">
          <mxGeometry width="50" height="50" relative="1" as="geometry">
            <mxPoint x="270" y="250" as="sourcePoint" />
            <mxPoint x="320" y="200" as="targetPoint" />
          </mxGeometry>
        </mxCell>
        <mxCell id="llIrjqi0Os5ixN-cO-Vk-10" value="Apply content&lt;br&gt;filter re&lt;span style=&quot;background-color: light-dark(#ffffff, var(--ge-dark-color, #121212)); color: light-dark(rgb(0, 0, 0), rgb(255, 255, 255));&quot;&gt;quest&lt;/span&gt;" style="edgeLabel;html=1;align=center;verticalAlign=middle;resizable=0;points=[];" connectable="0" vertex="1" parent="llIrjqi0Os5ixN-cO-Vk-9">
          <mxGeometry x="0.2" relative="1" as="geometry">
            <mxPoint x="42" y="6" as="offset" />
          </mxGeometry>
        </mxCell>
        <mxCell id="llIrjqi0Os5ixN-cO-Vk-12" value="" style="endArrow=classic;html=1;rounded=0;exitX=1.017;exitY=0.121;exitDx=0;exitDy=0;exitPerimeter=0;entryX=0;entryY=0.25;entryDx=0;entryDy=0;" edge="1" parent="1" source="llIrjqi0Os5ixN-cO-Vk-2" target="llIrjqi0Os5ixN-cO-Vk-1">
          <mxGeometry width="50" height="50" relative="1" as="geometry">
            <mxPoint x="350" y="610" as="sourcePoint" />
            <mxPoint x="400" y="560" as="targetPoint" />
          </mxGeometry>
        </mxCell>
        <mxCell id="llIrjqi0Os5ixN-cO-Vk-13" value="Apply premade global&lt;br&gt;&amp;nbsp;theme request" style="edgeLabel;html=1;align=center;verticalAlign=middle;resizable=0;points=[];" connectable="0" vertex="1" parent="llIrjqi0Os5ixN-cO-Vk-12">
          <mxGeometry x="-0.32" y="1" relative="1" as="geometry">
            <mxPoint as="offset" />
          </mxGeometry>
        </mxCell>
        <mxCell id="llIrjqi0Os5ixN-cO-Vk-14" value="" style="endArrow=classic;html=1;rounded=0;entryX=1.017;entryY=0.589;entryDx=0;entryDy=0;entryPerimeter=0;exitX=0;exitY=0.75;exitDx=0;exitDy=0;" edge="1" parent="1" source="llIrjqi0Os5ixN-cO-Vk-3" target="llIrjqi0Os5ixN-cO-Vk-1">
          <mxGeometry width="50" height="50" relative="1" as="geometry">
            <mxPoint x="750" y="480" as="sourcePoint" />
            <mxPoint x="520" y="600" as="targetPoint" />
          </mxGeometry>
        </mxCell>
        <mxCell id="llIrjqi0Os5ixN-cO-Vk-15" value="Apply custom global&lt;div&gt;theme request&lt;/div&gt;" style="edgeLabel;html=1;align=center;verticalAlign=middle;resizable=0;points=[];" connectable="0" vertex="1" parent="llIrjqi0Os5ixN-cO-Vk-14">
          <mxGeometry x="-0.18" y="-5" relative="1" as="geometry">
            <mxPoint as="offset" />
          </mxGeometry>
        </mxCell>
        <mxCell id="llIrjqi0Os5ixN-cO-Vk-16" value="" style="endArrow=classic;html=1;rounded=0;entryX=1;entryY=0.25;entryDx=0;entryDy=0;exitX=0.017;exitY=0.35;exitDx=0;exitDy=0;exitPerimeter=0;" edge="1" parent="1" source="llIrjqi0Os5ixN-cO-Vk-1" target="llIrjqi0Os5ixN-cO-Vk-2">
          <mxGeometry width="50" height="50" relative="1" as="geometry">
            <mxPoint x="560" y="540" as="sourcePoint" />
            <mxPoint x="410" y="530" as="targetPoint" />
          </mxGeometry>
        </mxCell>
        <mxCell id="llIrjqi0Os5ixN-cO-Vk-17" value="Premade global&amp;nbsp;&lt;div&gt;themes&lt;/div&gt;" style="edgeLabel;html=1;align=center;verticalAlign=middle;resizable=0;points=[];" connectable="0" vertex="1" parent="llIrjqi0Os5ixN-cO-Vk-16">
          <mxGeometry x="-0.2283" y="2" relative="1" as="geometry">
            <mxPoint as="offset" />
          </mxGeometry>
        </mxCell>
        <mxCell id="llIrjqi0Os5ixN-cO-Vk-18" value="Verified Users" style="rounded=0;whiteSpace=wrap;html=1;" vertex="1" parent="1">
          <mxGeometry x="490" y="690" width="160" height="70" as="geometry" />
        </mxCell>
        <mxCell id="llIrjqi0Os5ixN-cO-Vk-21" value="" style="endArrow=classic;html=1;rounded=0;entryX=0.75;entryY=0;entryDx=0;entryDy=0;exitX=0.813;exitY=1.033;exitDx=0;exitDy=0;exitPerimeter=0;" edge="1" parent="1" source="llIrjqi0Os5ixN-cO-Vk-4" target="llIrjqi0Os5ixN-cO-Vk-1">
          <mxGeometry width="50" height="50" relative="1" as="geometry">
            <mxPoint x="650" y="210" as="sourcePoint" />
            <mxPoint x="700" y="160" as="targetPoint" />
          </mxGeometry>
        </mxCell>
        <mxCell id="llIrjqi0Os5ixN-cO-Vk-22" value="Verification Description&lt;br&gt;Request" style="edgeLabel;html=1;align=center;verticalAlign=middle;resizable=0;points=[];" connectable="0" vertex="1" parent="llIrjqi0Os5ixN-cO-Vk-21">
          <mxGeometry x="-0.38" y="-4" relative="1" as="geometry">
            <mxPoint x="14" y="89" as="offset" />
          </mxGeometry>
        </mxCell>
        <mxCell id="llIrjqi0Os5ixN-cO-Vk-23" value="" style="endArrow=classic;html=1;rounded=0;exitX=0.25;exitY=1;exitDx=0;exitDy=0;entryX=0.25;entryY=0;entryDx=0;entryDy=0;" edge="1" parent="1" source="llIrjqi0Os5ixN-cO-Vk-1" target="llIrjqi0Os5ixN-cO-Vk-18">
          <mxGeometry width="50" height="50" relative="1" as="geometry">
            <mxPoint x="400" y="560" as="sourcePoint" />
            <mxPoint x="450" y="510" as="targetPoint" />
          </mxGeometry>
        </mxCell>
        <mxCell id="llIrjqi0Os5ixN-cO-Vk-24" value="Verification&amp;nbsp;&lt;div&gt;description&lt;/div&gt;" style="edgeLabel;html=1;align=center;verticalAlign=middle;resizable=0;points=[];" connectable="0" vertex="1" parent="llIrjqi0Os5ixN-cO-Vk-23">
          <mxGeometry x="0.36" y="-1" relative="1" as="geometry">
            <mxPoint as="offset" />
          </mxGeometry>
        </mxCell>
        <mxCell id="llIrjqi0Os5ixN-cO-Vk-25" value="" style="endArrow=classic;html=1;rounded=0;entryX=-0.017;entryY=0.428;entryDx=0;entryDy=0;entryPerimeter=0;exitX=1.017;exitY=0.379;exitDx=0;exitDy=0;exitPerimeter=0;" edge="1" parent="1" source="llIrjqi0Os5ixN-cO-Vk-2" target="llIrjqi0Os5ixN-cO-Vk-1">
          <mxGeometry width="50" height="50" relative="1" as="geometry">
            <mxPoint x="160" y="650" as="sourcePoint" />
            <mxPoint x="390" y="510" as="targetPoint" />
          </mxGeometry>
        </mxCell>
        <mxCell id="llIrjqi0Os5ixN-cO-Vk-26" value="Remove follower&lt;div&gt;request&lt;/div&gt;" style="edgeLabel;html=1;align=center;verticalAlign=middle;resizable=0;points=[];" connectable="0" vertex="1" parent="llIrjqi0Os5ixN-cO-Vk-25">
          <mxGeometry x="-0.54" y="-2" relative="1" as="geometry">
            <mxPoint as="offset" />
          </mxGeometry>
        </mxCell>
        <mxCell id="llIrjqi0Os5ixN-cO-Vk-27" value="" style="endArrow=classic;html=1;rounded=0;entryX=-0.008;entryY=0.539;entryDx=0;entryDy=0;entryPerimeter=0;exitX=1;exitY=0.5;exitDx=0;exitDy=0;" edge="1" parent="1" source="llIrjqi0Os5ixN-cO-Vk-2" target="llIrjqi0Os5ixN-cO-Vk-1">
          <mxGeometry width="50" height="50" relative="1" as="geometry">
            <mxPoint x="180" y="640" as="sourcePoint" />
            <mxPoint x="230" y="590" as="targetPoint" />
          </mxGeometry>
        </mxCell>
        <mxCell id="llIrjqi0Os5ixN-cO-Vk-28" value="Block reason&amp;nbsp;&lt;div&gt;request&lt;/div&gt;" style="edgeLabel;html=1;align=center;verticalAlign=middle;resizable=0;points=[];" connectable="0" vertex="1" parent="llIrjqi0Os5ixN-cO-Vk-27">
          <mxGeometry x="0.46" y="-5" relative="1" as="geometry">
            <mxPoint as="offset" />
          </mxGeometry>
        </mxCell>
        <mxCell id="llIrjqi0Os5ixN-cO-Vk-29" value="" style="endArrow=classic;html=1;rounded=0;entryX=0.983;entryY=0.597;entryDx=0;entryDy=0;entryPerimeter=0;exitX=-0.033;exitY=0.639;exitDx=0;exitDy=0;exitPerimeter=0;" edge="1" parent="1" source="llIrjqi0Os5ixN-cO-Vk-1" target="llIrjqi0Os5ixN-cO-Vk-2">
          <mxGeometry width="50" height="50" relative="1" as="geometry">
            <mxPoint x="290" y="610" as="sourcePoint" />
            <mxPoint x="340" y="560" as="targetPoint" />
          </mxGeometry>
        </mxCell>
        <mxCell id="llIrjqi0Os5ixN-cO-Vk-30" value="Block reason&lt;div&gt;description&lt;/div&gt;" style="edgeLabel;html=1;align=center;verticalAlign=middle;resizable=0;points=[];" connectable="0" vertex="1" parent="llIrjqi0Os5ixN-cO-Vk-29">
          <mxGeometry x="0.6799" y="5" relative="1" as="geometry">
            <mxPoint as="offset" />
          </mxGeometry>
        </mxCell>
        <mxCell id="llIrjqi0Os5ixN-cO-Vk-31" value="" style="endArrow=classic;html=1;rounded=0;entryX=0;entryY=0.722;entryDx=0;entryDy=0;exitX=0.975;exitY=0.714;exitDx=0;exitDy=0;exitPerimeter=0;entryPerimeter=0;" edge="1" parent="1" source="llIrjqi0Os5ixN-cO-Vk-2" target="llIrjqi0Os5ixN-cO-Vk-1">
          <mxGeometry width="50" height="50" relative="1" as="geometry">
            <mxPoint x="150" y="660" as="sourcePoint" />
            <mxPoint x="200" y="610" as="targetPoint" />
          </mxGeometry>
        </mxCell>
        <mxCell id="llIrjqi0Os5ixN-cO-Vk-32" value="Display community&lt;div&gt;badge request&lt;/div&gt;" style="edgeLabel;html=1;align=center;verticalAlign=middle;resizable=0;points=[];" connectable="0" vertex="1" parent="llIrjqi0Os5ixN-cO-Vk-31">
          <mxGeometry x="-0.46" y="-5" relative="1" as="geometry">
            <mxPoint x="66" y="-3" as="offset" />
          </mxGeometry>
        </mxCell>
        <mxCell id="llIrjqi0Os5ixN-cO-Vk-34" value="" style="endArrow=classic;html=1;rounded=0;entryX=0.75;entryY=1;entryDx=0;entryDy=0;exitX=0.813;exitY=0;exitDx=0;exitDy=0;exitPerimeter=0;" edge="1" parent="1" source="llIrjqi0Os5ixN-cO-Vk-18" target="llIrjqi0Os5ixN-cO-Vk-1">
          <mxGeometry width="50" height="50" relative="1" as="geometry">
            <mxPoint x="630" y="620" as="sourcePoint" />
            <mxPoint x="680" y="570" as="targetPoint" />
          </mxGeometry>
        </mxCell>
        <mxCell id="llIrjqi0Os5ixN-cO-Vk-35" value="Verification description&lt;div&gt;update request&lt;/div&gt;" style="edgeLabel;html=1;align=center;verticalAlign=middle;resizable=0;points=[];" connectable="0" vertex="1" parent="llIrjqi0Os5ixN-cO-Vk-34">
          <mxGeometry x="0.38" y="4" relative="1" as="geometry">
            <mxPoint x="-2" y="24" as="offset" />
          </mxGeometry>
        </mxCell>
        <mxCell id="llIrjqi0Os5ixN-cO-Vk-37" value="" style="endArrow=classic;html=1;rounded=0;entryX=0;entryY=0.867;entryDx=0;entryDy=0;entryPerimeter=0;exitX=1.017;exitY=0.862;exitDx=0;exitDy=0;exitPerimeter=0;" edge="1" parent="1" source="llIrjqi0Os5ixN-cO-Vk-2" target="llIrjqi0Os5ixN-cO-Vk-1">
          <mxGeometry width="50" height="50" relative="1" as="geometry">
            <mxPoint x="240" y="650" as="sourcePoint" />
            <mxPoint x="290" y="600" as="targetPoint" />
          </mxGeometry>
        </mxCell>
        <mxCell id="llIrjqi0Os5ixN-cO-Vk-38" value="Preferences" style="edgeLabel;html=1;align=center;verticalAlign=middle;resizable=0;points=[];" connectable="0" vertex="1" parent="llIrjqi0Os5ixN-cO-Vk-37">
          <mxGeometry x="-0.34" y="2" relative="1" as="geometry">
            <mxPoint x="47" as="offset" />
          </mxGeometry>
        </mxCell>
        <mxCell id="whPNloyJt8uR8uSxToMw-1" value="" style="endArrow=classic;html=1;rounded=0;entryX=0.563;entryY=1.037;entryDx=0;entryDy=0;entryPerimeter=0;exitX=0.424;exitY=-0.005;exitDx=0;exitDy=0;exitPerimeter=0;" edge="1" parent="1" source="llIrjqi0Os5ixN-cO-Vk-1" target="llIrjqi0Os5ixN-cO-Vk-4">
          <mxGeometry width="50" height="50" relative="1" as="geometry">
            <mxPoint x="780" y="270" as="sourcePoint" />
            <mxPoint x="790" y="170" as="targetPoint" />
          </mxGeometry>
        </mxCell>
        <mxCell id="whPNloyJt8uR8uSxToMw-2" value="Post" style="edgeLabel;html=1;align=center;verticalAlign=middle;resizable=0;points=[];" connectable="0" vertex="1" parent="whPNloyJt8uR8uSxToMw-1">
          <mxGeometry x="0.55" y="2" relative="1" as="geometry">
            <mxPoint x="2" y="35" as="offset" />
          </mxGeometry>
        </mxCell>
      </root>
    </mxGraphModel>
  </diagram>
</mxfile>
